<svg width="33" height="33" viewBox="0 0 33 33" fill="none" xmlns="http://www.w3.org/2000/svg">
<path d="M12.133 19.9233C13.017 19.9233 13.8649 19.5721 14.49 18.947C15.1151 18.3219 15.4663 17.474 15.4663 16.59C15.4663 14.75 14.7996 13.9233 14.133 12.59C12.7036 9.73263 13.8343 7.18463 16.7996 4.58997C17.4663 7.9233 19.4663 11.1233 22.133 13.2566C24.7996 15.39 26.133 17.9233 26.133 20.59C26.133 21.8156 25.8916 23.0293 25.4225 24.1617C24.9535 25.2941 24.266 26.3229 23.3993 27.1896C22.5326 28.0563 21.5037 28.7438 20.3714 29.2128C19.239 29.6819 18.0253 29.9233 16.7996 29.9233C15.574 29.9233 14.3603 29.6819 13.2279 29.2128C12.0956 28.7438 11.0667 28.0563 10.2 27.1896C9.3333 26.3229 8.64581 25.2941 8.17677 24.1617C7.70772 23.0293 7.46631 21.8156 7.46631 20.59C7.46631 19.0526 8.04364 17.5313 8.79964 16.59C8.79964 17.474 9.15083 18.3219 9.77595 18.947C10.4011 19.5721 11.2489 19.9233 12.133 19.9233Z" stroke="#FF6900" stroke-width="2.66667" stroke-linecap="round" stroke-linejoin="round"/>
</svg>
