<svg width="33" height="33" viewBox="0 0 33 33" fill="none" xmlns="http://www.w3.org/2000/svg">
<path d="M16.1997 9.29393V4.58993C16.1997 4.2363 16.3402 3.89716 16.5902 3.64712C16.8403 3.39707 17.1794 3.25659 17.533 3.25659" stroke="#2B7FFF" stroke-width="2.66667" stroke-linecap="round" stroke-linejoin="round"/>
<path d="M24.5156 28.59C27.7679 24.912 29.5537 20.1663 29.5329 15.2567C29.5329 13.7123 29.0859 12.201 28.2458 10.9052C27.4058 9.60931 26.2086 8.58429 24.7988 7.95384C23.389 7.32338 21.8269 7.11445 20.301 7.35226C18.7751 7.59006 17.3506 8.26444 16.1996 9.29399C15.0485 8.26444 13.624 7.59006 12.0981 7.35226C10.5722 7.11445 9.01011 7.32338 7.60034 7.95384C6.19056 8.58429 4.9934 9.60931 4.15335 10.9052C3.3133 12.201 2.86628 13.7123 2.86624 15.2567C2.85783 20.1641 4.64205 24.9056 7.88357 28.59C8.48052 29.2578 9.28433 29.706 10.1663 29.8626C11.0482 30.0193 11.9572 29.8754 12.7476 29.454C13.8099 28.8872 14.9955 28.5907 16.1996 28.5907C17.4037 28.5907 18.5892 28.8872 19.6516 29.454C20.442 29.8754 21.351 30.0193 22.2329 29.8626C23.1148 29.706 23.9186 29.2578 24.5156 28.59Z" stroke="#2B7FFF" stroke-width="2.66667" stroke-linecap="round" stroke-linejoin="round"/>
</svg>
