<svg width="33" height="33" viewBox="0 0 33 33" fill="none" xmlns="http://www.w3.org/2000/svg">
<path d="M9.73324 22.3233C12.6666 22.3233 15.0666 19.8833 15.0666 16.9233C15.0666 15.3766 14.3066 13.91 12.7866 12.6699C11.2666 11.4299 10.1199 9.58995 9.73324 7.65662C9.34657 9.58995 8.21324 11.4433 6.6799 12.6699C5.14657 13.8966 4.3999 15.3899 4.3999 16.9233C4.3999 19.8833 6.7999 22.3233 9.73324 22.3233Z" stroke="#AD46FF" stroke-width="2.66667" stroke-linecap="round" stroke-linejoin="round"/>
<path d="M17.1467 9.38991C18.0637 7.92474 18.7138 6.30864 19.0667 4.61658C19.7334 7.94991 21.7334 11.1499 24.4 13.2832C27.0667 15.4166 28.4 17.9499 28.4 20.6166C28.4076 22.4596 27.8678 24.2635 26.8491 25.7994C25.8303 27.3353 24.3784 28.5341 22.6775 29.2439C20.9766 29.9537 19.1032 30.1425 17.2949 29.7863C15.4866 29.4301 13.8247 28.545 12.52 27.2432" stroke="#AD46FF" stroke-width="2.66667" stroke-linecap="round" stroke-linejoin="round"/>
</svg>
