<svg width="32" height="33" viewBox="0 0 32 33" fill="none" xmlns="http://www.w3.org/2000/svg">
<path d="M5.33349 19.2566C5.08117 19.2575 4.83379 19.1868 4.62009 19.0526C4.40639 18.9185 4.23513 18.7265 4.12622 18.4989C4.01731 18.2713 3.97521 18.0174 4.00482 17.7669C4.03443 17.5163 4.13453 17.2793 4.29349 17.0833L17.4935 3.48331C17.5925 3.36902 17.7274 3.29179 17.8761 3.26429C18.0248 3.23679 18.1785 3.26066 18.3118 3.33199C18.4451 3.40331 18.5503 3.51784 18.6099 3.65679C18.6696 3.79574 18.6803 3.95084 18.6402 4.09665L16.0802 12.1233C16.0047 12.3253 15.9793 12.5427 16.0063 12.7567C16.0332 12.9706 16.1117 13.1749 16.2349 13.3519C16.3582 13.5289 16.5225 13.6733 16.7139 13.7729C16.9052 13.8724 17.1178 13.924 17.3335 13.9233H26.6668C26.9191 13.9225 27.1665 13.9932 27.3802 14.1273C27.5939 14.2615 27.7652 14.4535 27.8741 14.6811C27.983 14.9087 28.0251 15.1625 27.9955 15.4131C27.9659 15.6637 27.8658 15.9007 27.7068 16.0966L14.5068 29.6966C14.4078 29.8109 14.2729 29.8882 14.1242 29.9157C13.9755 29.9432 13.8219 29.9193 13.6885 29.848C13.5552 29.7767 13.45 29.6621 13.3904 29.5232C13.3307 29.3842 13.32 29.2291 13.3602 29.0833L15.9202 21.0566C15.9956 20.8546 16.021 20.6373 15.994 20.4233C15.9671 20.2093 15.8886 20.0051 15.7654 19.8281C15.6421 19.6511 15.4778 19.5066 15.2865 19.4071C15.0951 19.3076 14.8825 19.2559 14.6668 19.2566H5.33349Z" stroke="#00C950" stroke-width="2.66667" stroke-linecap="round" stroke-linejoin="round"/>
</svg>
